<?xml version="1.0" encoding="utf-8"?>
<!-- Generator: Adobe Illustrator 19.0.1, SVG Export Plug-In . SVG Version: 6.00 Build 0)  -->
<svg version="1.1" id="lights" xmlns="http://www.w3.org/2000/svg" xmlns:xlink="http://www.w3.org/1999/xlink" x="0px" y="0px"
	 viewBox="0 0 128 128" style="enable-background:new 0 0 128 128;" xml:space="preserve">
<style type="text/css">
	.st0{display:none;fill:#3E3E3E;}
	.st1{fill:#3E3E3E;}
</style>
<g id="row3_1_">
	<path id="light_3_" class="st0" d="M128,62v-2.9h-5.5v-2.6H5.3v2.6H0V62h5.3v3.8H0v2.9h5.3v2.7h117.2v-2.7h5.5v-2.9h-5.5V62H128z
		 M15.3,59.4H112v9.2H15.3V59.4z"/>
	<path id="light_2_" class="st0" d="M99.4,0c0,0,0.8,6.6,0.8,12.1c0,5.5,1.7,6.7,3.8,6.7c2.1,0,3.8-1.2,3.8-6.7
		C107.7,6.6,99.4,0,99.4,0z M19.2,0c0,0,0.8,6.6,0.8,12.1c0,5.5,1.7,6.7,3.8,6.7c2.1,0,3.8-1.2,3.8-6.7C27.5,6.6,19.2,0,19.2,0z
		 M108.7,53.4V21h-9v32.4H80.1v2.2c0,12.6,10.7,22.9,23.9,22.9c0.2,0,0.4,0,0.6,0c-1.1,13.5-11.1,24.8-24.9,29.7l-6.1-10.1H55.5
		l-6.1,10.1C35.5,103.4,25.5,92,24.4,78.5c13-0.2,23.5-10.4,23.5-22.9v-2.2H28.5V21h-9v32.4H0v2.2c0,11.2,8.5,20.6,19.7,22.5
		c0.9,15.3,11.9,28.3,27.3,34l-0.5,0.9l9,15h18.1l9-15l-0.5-0.9c15.4-5.7,26.5-18.8,27.3-34.2C120,75.7,128,66.5,128,55.6v-2.2
		H108.7z M4.8,57.9h38.3C41.9,67,33.8,74.1,24,74.1C14.1,74.1,6,67,4.8,57.9z M104,74.1c-9.8,0-18-7.1-19.1-16.2h38.3
		C122,67,113.9,74.1,104,74.1z"/>
	<path id="light_1_" class="st0" d="M64.3,0L42.4,20.4h43.3L64.3,0z M43.1,23.6l8.6,38.2h7.9V128h9.3V61.8h7.8l8.6-38.2H43.1z
		 M61.6,58h-6.6L48,27.4h13.5V58z M73.5,58h-6.6V27.4h13.5L73.5,58z"/>
	<path id="light" class="st0" d="M100.6,64.6H27.4c-4.2,6.4-6.7,14-6.7,22.1c0,22.8,19.4,41.3,43.3,41.3c23.9,0,43.3-18.5,43.3-41.3
		C107.3,78.5,104.8,71,100.6,64.6z M97.6,59.4l-67.6,0c6.3-9.5,18.8-16.2,31.2-17.2v-35H41.6V0h44.7v7.2H68.1v35
		C80.5,43.3,91.3,49.9,97.6,59.4z"/>
	<path id="light_4_" class="st0" d="M68.9,51.3v-8.5h-9.8v8.5c-6.8,1.8-11.7,7.5-11.7,14.1h33.1C80.6,58.7,75.6,53.1,68.9,51.3z
		 M4.1,68.3v2.4C4.1,102.3,30.9,128,64,128c33,0,59.9-25.7,59.9-57.3v-2.4H4.1z M64,123.1c-29.4,0-53.4-22.2-54.8-49.9h109.5
		C117.4,100.9,93.4,123.1,64,123.1z M71.1,0v13.5h-4.5v25.4h-5.6V13.5h-4.5V0H71.1z"/>
</g>
<g id="row2_1_">
	<path class="st0" d="M64,0C49.3,0,39.1,2.9,39.1,5.5c0,2.6,10.2,5.5,24.9,5.5s24.9-2.9,24.9-5.5C88.9,2.9,78.7,0,64,0z M88.9,78.2
		L88.9,78.2c0,0.2,0,0.3,0,0.5c0,3.9-9.4,7.2-21.7,7.7v35.9h10.5v5.7H50.3v-5.7h10.5V86.4c-12.3-0.5-21.7-3.7-21.7-7.7
		c0-0.2,0-0.4,0.1-0.5h-0.1v-71c2.8,3.3,14.1,5,24.9,5s22.1-1.8,24.9-5V78.2z"/>
	<path id="lamp_1_" class="st0" d="M85.3,118l16.9-37.2c0,0,0,0,0,0c6.2,0,11.2-4.8,11.2-10.7c0-5.9-5-10.7-11.2-10.7
		c-0.3,0-0.7,0-1,0L73.1,33.6l6.5-6.1c3.3-3.1,5-7.2,5-11.3c0-4.1-1.6-8.3-4.8-11.4c-6.5-6.3-17.2-6.4-23.9-0.2L34.8,24.4
		c-7.3-0.3-14.8,2.2-20.4,7.4l6.1,5.9c-5,5.7-3.6,15.2,3.3,21.7c4.1,3.9,9.2,5.9,14,5.9c3.1,0,6.1-0.9,8.4-2.6l6.6,6.4
		c5.3-5,8.1-11.7,8.1-18.4c0-1.7-0.1-3.4-0.5-5.1l8-7.5l26.2,24c-2.3,2-3.7,4.8-3.7,7.9c0,3.6,1.9,6.9,4.8,8.8L78,118H48.5v10h65.1
		v-10H85.3z M27.3,56C22.4,51.4,21.1,45,24,41.1l18.6,18.1C38.6,61.8,32.1,60.6,27.3,56z M102.2,65.6c2.5,0,4.6,2,4.6,4.4
		c0,2.4-2.1,4.4-4.6,4.4c-2.5,0-4.6-2-4.6-4.4C97.6,67.6,99.6,65.6,102.2,65.6z"/>
	<path class="st0" d="M46.2,123.8v4.2h35.6v-4.2H46.2z M46.2,120.5v2.1h35.6v-2.1H46.2z M59.8,49v70.3h8.5V49H59.8z M101.1,47.4
		c0.5,0.2,0.8,0.7,0.8,1.2c0,0.5-0.3,1-0.8,1.2c0.8,0.2,1.5,0.9,1.5,1.8c0,1.1-0.9,1.9-2,1.9s-2-0.9-2-1.9c0-0.9,0.6-1.6,1.5-1.8
		c-0.5-0.2-0.8-0.7-0.8-1.2c0-0.5,0.3-1,0.8-1.2c-0.8-0.2-1.5-0.9-1.5-1.8c0-0.8,0.4-1.4,1.1-1.7h-4.4c0.7,0.3,1.1,1,1.1,1.7
		c0,0.9-0.6,1.6-1.5,1.8c0.5,0.2,0.8,0.7,0.8,1.2c0,0.5-0.3,1-0.8,1.2c0.8,0.2,1.5,0.9,1.5,1.8c0,1.1-0.9,1.9-2,1.9s-2-0.9-2-1.9
		c0-0.9,0.6-1.6,1.5-1.8c-0.5-0.2-0.8-0.7-0.8-1.2c0-0.5,0.3-1,0.8-1.2c-0.8-0.2-1.5-0.9-1.5-1.8c0-0.8,0.4-1.4,1.1-1.7h-4.4
		c0.7,0.3,1.1,1,1.1,1.7c0,0.9-0.6,1.6-1.5,1.8c0.5,0.2,0.8,0.7,0.8,1.2c0,0.5-0.3,1-0.8,1.2c0.8,0.2,1.5,0.9,1.5,1.8
		c0,1.1-0.9,1.9-2,1.9s-2-0.9-2-1.9c0-0.9,0.6-1.6,1.5-1.8c-0.5-0.2-0.8-0.7-0.8-1.2c0-0.5,0.3-1,0.8-1.2c-0.8-0.2-1.5-0.9-1.5-1.8
		c0-0.8,0.4-1.4,1.1-1.7h-4.4c0.7,0.3,1.1,1,1.1,1.7c0,0.9-0.6,1.6-1.5,1.8c0.5,0.2,0.8,0.7,0.8,1.2c0,0.5-0.3,1-0.8,1.2
		c0.8,0.2,1.5,0.9,1.5,1.8c0,1.1-0.9,1.9-2,1.9c-1.1,0-2-0.9-2-1.9c0-0.9,0.6-1.6,1.5-1.8c-0.5-0.2-0.8-0.7-0.8-1.2
		c0-0.5,0.3-1,0.8-1.2c-0.8-0.2-1.5-0.9-1.5-1.8c0-0.8,0.4-1.4,1.1-1.7h-6.5V48H53.3v-4.1h-6.5c0.7,0.3,1.1,1,1.1,1.7
		c0,0.9-0.6,1.6-1.5,1.8c0.5,0.2,0.8,0.7,0.8,1.2c0,0.5-0.3,1-0.8,1.2c0.8,0.2,1.5,0.9,1.5,1.8c0,1.1-0.9,1.9-2,1.9s-2-0.9-2-1.9
		c0-0.9,0.6-1.6,1.5-1.8c-0.5-0.2-0.8-0.7-0.8-1.2c0-0.5,0.3-1,0.8-1.2c-0.8-0.2-1.5-0.9-1.5-1.8c0-0.8,0.4-1.4,1.1-1.7h-4.4
		c0.7,0.3,1.1,1,1.1,1.7c0,0.9-0.6,1.6-1.5,1.8c0.5,0.2,0.8,0.7,0.8,1.2c0,0.5-0.3,1-0.8,1.2c0.8,0.2,1.5,0.9,1.5,1.8
		c0,1.1-0.9,1.9-2,1.9s-2-0.9-2-1.9c0-0.9,0.6-1.6,1.5-1.8c-0.5-0.2-0.8-0.7-0.8-1.2c0-0.5,0.3-1,0.8-1.2c-0.8-0.2-1.5-0.9-1.5-1.8
		c0-0.8,0.4-1.4,1.1-1.7h-4.4c0.7,0.3,1.1,1,1.1,1.7c0,0.9-0.6,1.6-1.5,1.8c0.5,0.2,0.8,0.7,0.8,1.2c0,0.5-0.3,1-0.8,1.2
		c0.8,0.2,1.5,0.9,1.5,1.8c0,1.1-0.9,1.9-2,1.9s-2-0.9-2-1.9c0-0.9,0.6-1.6,1.5-1.8c-0.5-0.2-0.8-0.7-0.8-1.2c0-0.5,0.3-1,0.8-1.2
		c-0.8-0.2-1.5-0.9-1.5-1.8c0-0.8,0.4-1.4,1.1-1.7h-4.4c0.7,0.3,1.1,1,1.1,1.7c0,0.9-0.6,1.6-1.5,1.8c0.5,0.2,0.8,0.7,0.8,1.2
		c0,0.5-0.3,1-0.8,1.2c0.8,0.2,1.5,0.9,1.5,1.8c0,1.1-0.9,1.9-2,1.9s-2-0.9-2-1.9c0-0.9,0.6-1.6,1.5-1.8c-0.5-0.2-0.8-0.7-0.8-1.2
		c0-0.5,0.3-1,0.8-1.2c-0.8-0.2-1.5-0.9-1.5-1.8c0-0.8,0.4-1.4,1.1-1.7h-3.9L40.9,0h46.1l18.3,43.9h-3.9c0.7,0.3,1.1,1,1.1,1.7
		C102.6,46.5,101.9,47.2,101.1,47.4z"/>
	<path id="lamp_5_" class="st0" d="M52.6,124.8v3.2h23.9v-3.2H52.6z M96.8,52.5h11.7L81.8,0h-0.9c0.2,0.5,0.3,1,0.3,1.5
		c0,2.7-2.3,4.9-5.1,4.9c-2.8,0-5.1-2.2-5.1-4.9c0-0.5,0.1-1,0.3-1.5H46.2l-9.2,18c0.9-0.8,2.1-1.3,3.4-1.3c2.8,0,5.1,2.2,5.1,4.9
		c0,2.7-2.3,4.9-5.1,4.9c-2.8,0-5.1-2.2-5.1-4.9c0-0.1,0-0.2,0-0.4L19.6,52.5h10c-1.2-0.9-2-2.3-2-3.9c0-2.7,2.3-4.9,5.1-4.9
		c2.8,0,5.1,2.2,5.1,4.9c0,1.6-0.8,3-2,3.9h24.6v6.3H47.8c0,0,9.4,2.6,9.4,10.2c0,7.6-14.1-0.3-14.1,19.5c0,9.3,11.5,32.5,11.5,32.5
		l19.7,0c0,0,11.5-23.2,11.5-32.5c0-19.8-14.1-11.9-14.1-19.5c0-7.6,9.4-10.2,9.4-10.2H70.1v-6.3h22.4c-1.7-0.8-3-2.5-3-4.4
		c0-2.7,2.3-4.9,5.1-4.9c2.8,0,5.1,2.2,5.1,4.9C99.8,50,98.5,51.7,96.8,52.5z M51.3,48c-2.8,0-5.1-2.2-5.1-4.9
		c0-2.7,2.3-4.9,5.1-4.9c2.8,0,5.1,2.2,5.1,4.9C56.4,45.8,54.1,48,51.3,48z M52.4,11.1c0-2.7,2.3-4.9,5.1-4.9c2.8,0,5.1,2.2,5.1,4.9
		c0,2.7-2.3,4.9-5.1,4.9C54.7,15.9,52.4,13.8,52.4,11.1z M58.4,27.8c0-2.7,2.3-4.9,5.1-4.9c2.8,0,5.1,2.2,5.1,4.9
		c0,2.7-2.3,4.9-5.1,4.9C60.7,32.7,58.4,30.5,58.4,27.8z M79.6,39.8c-2.8,0-5.1-2.2-5.1-4.9c0-2.7,2.3-4.9,5.1-4.9
		c2.8,0,5.1,2.2,5.1,4.9C84.7,37.6,82.4,39.8,79.6,39.8z M80.8,22.5c-2.8,0-5.1-2.2-5.1-4.9c0-2.7,2.3-4.9,5.1-4.9
		c2.8,0,5.1,2.2,5.1,4.9C85.9,20.3,83.6,22.5,80.8,22.5z"/>
	<path id="lamp_4_" class="st0" d="M16.5,122.1v5.9h47.9v-5.9H16.5z M38.1,122.1v3.3h4.7v-3.3H38.1z M86,24.6
		C85.5,13.4,76,4.5,64.4,4.5c-11.9,0-21.6,9.4-21.6,21.1v96.6h-4.7V25.5C38.1,11.5,49.9,0,64.4,0c14.2,0,25.7,10.9,26.3,24.6
		c11.7,1.1,20.8,10.5,20.8,22H65.2C65.2,35.1,74.3,25.7,86,24.6z"/>
	<path id="lamp_3_" class="st0" d="M64.7,20.7l-4.8-4.1H4.8L0,29.2h64.7v-2.9h10.8v-5.6H64.7z M120.2,39.9c-0.3,0-0.5,0-0.7,0l0,0
		l-27-16.8c-0.6-3.6-3.8-6.3-7.7-6.3c-4.3,0-7.8,3.3-7.8,7.5s3.5,7.5,7.8,7.5c0.5,0,1,0,1.5-0.1l26.2,16.6c0.1,0.9,0.4,1.8,0.8,2.6
		l-26.4,53.4H69.1v7.3h47.3v-7.3H99.2L124,54c2.4-1.3,4-3.7,4-6.6C128,43.3,124.5,39.9,120.2,39.9z M84.7,27.7c-2,0-3.6-1.6-3.6-3.5
		c0-1.9,1.6-3.5,3.6-3.5c2,0,3.6,1.6,3.6,3.5C88.4,26.2,86.7,27.7,84.7,27.7z M90.3,29.4c0.6-0.6,1.1-1.2,1.4-2l23.2,14.4
		c-0.7,0.6-1.3,1.3-1.7,2.1L90.3,29.4z M94.6,104.1h-3.2l24.8-50.2c0.8,0.5,1.7,0.8,2.7,0.9L94.6,104.1z M120.2,50.9
		c-2,0-3.7-1.6-3.7-3.5s1.6-3.5,3.7-3.5s3.7,1.6,3.7,3.5S122.2,50.9,120.2,50.9z"/>
</g>
<g id="row1_1_">
	<path id="blub_3_" class="st0" d="M73.9,128H54.1l-6.5-9.3h32.8L73.9,128z M80.4,111H47.6v4.6h32.8V111z M80.4,103.2H47.6v4.6h32.8
		V103.2z M80.4,95.5H47.6v4.6h32.8V95.5z M83.2,92.2H45.1V55.9c-16.9-5.5-29.5-17.6-29.5-28.8C15.6,16.9,38.2,0,64,0
		c25.8,0,48.4,16.9,48.4,27.1c0,11-12.4,23.1-29.2,28.7V92.2z M50,87.5h28.4V52.4l1.7-0.5c12.5-3.7,26-13.5,27.4-23.2H20.6
		c1.3,9.8,15,19.6,27.6,23.3l1.7,0.5V87.5z M21.5,24h85C102.3,16.6,85.3,4.6,64,4.6C42.7,4.6,25.7,16.6,21.5,24z"/>
	<path id="blub_6_" class="st0" d="M77.2,110.1h-26v-4.5h26V110.1z M74.5,113.9H53.9v4.5h20.6V113.9z M71.4,120.6H57v4.5h14.5V120.6
		z M67.6,125.2h-6.7v2.8h6.7V125.2z M47,101.8V85.4c-5.3-4-29.6-23.3-29.6-41C17.4,20,38.3,0,64,0s46.6,20,46.6,44.5
		c0,17.6-24.2,36.9-29.5,40.9v16.4L47,101.8z M64,4.6c-23,0-41.7,17.9-41.7,39.9c0,17.1,28.4,37.8,28.6,38l1,0.7v14l24.3,0v-14
		l1-0.7c0.3-0.2,28.5-20.9,28.5-38C105.7,22.5,87,4.6,64,4.6z"/>
	<path id="blub" class="st1" d="M77.9,109.9H50.1c-1.3,0-2.4-1.1-2.4-2.4v-5.2c0-1.3,1.1-2.4,2.4-2.4h27.9c1.3,0,2.4,1.1,2.4,2.4
		v5.2C80.3,108.8,79.3,109.9,77.9,109.9z M54.5,123c0,0,2.3,5,5.2,5h8.6c2.9,0,5.2-5,5.2-5 M75.6,118.5v-3.6c0-0.9-0.7-1.7-1.7-1.7
		H54.1c-0.9,0-1.7,0.7-1.7,1.7v3.6c0,0.9,0.7,1.7,1.7,1.7h19.8C74.8,120.1,75.6,119.4,75.6,118.5z M64,97.1
		c-18.4,0-29.4-14.5-29.4-38.7C34.6,33.8,51.6,0,64,0s29.4,33.8,29.4,58.4C93.4,82.6,82.4,97.1,64,97.1z M64,4.5
		c-7.4,0-24.7,28.2-24.7,53.9c0,21.7,9,34.2,24.7,34.2s24.7-12.5,24.7-34.2C88.7,32.7,71.4,4.5,64,4.5z"/>
	<path id="blub_1_" class="st0" d="M41.9,71.2h44.3v19.2l-9.6,13H51.4l-9.6-12.5V71.2z M77.7,105.9H50.4v3.5h27.3V105.9z
		 M77.7,111.7H50.4v3.4h27.3V111.7z M77.7,117.4H50.4v2.6h27.3V117.4z M59.3,128h9.6l5.5-5.8H53.6L59.3,128z M83.2,68.3H66v-60
		C66,3.7,69.9,0,74.6,0c4.8,0,8.6,3.7,8.6,8.2V68.3z M70.5,63.9h8.2V8.2c0-2.2-1.8-3.9-4.1-3.9c-2.3,0-4.1,1.8-4.1,3.9V63.9z
		 M62,68.3H44.8v-60c0-4.5,3.9-8.2,8.6-8.2S62,3.7,62,8.2V68.3z M49.3,63.9h8.2V8.2c0-2.2-1.8-3.9-4.1-3.9s-4.1,1.8-4.1,3.9V63.9z"
		/>
	<path id="blub_2_" class="st0" d="M55.4,87.4c-1.8,0-4.3-0.6-5.9-3.7c-0.6-1.2-0.5-2.4-0.5-3.6c0.1-1.4,0.1-2.9-0.6-4.5
		c-0.7-1.6-1.3-1.8-2.4-2.3c-0.7-0.3-1.6-0.6-2.6-1.3c-1.8-1.2-2.7-3.5-2.5-5.8c0.2-2,1.3-3.5,2.8-4.2l0,0c0,0,0,0,0,0
		c4.3-1.8,12.4,3.2,14.5,6.3c2.8,4.3,3,8.2,3.1,11.5c0,0.4,0,0.9,0.1,1.3c0.1,2-0.4,3.6-1.5,4.7C58.8,86.9,57.3,87.4,55.4,87.4z
		 M45.8,66c-0.1,0.2-0.2,0.7-0.1,1.2c0.1,0.5,0.3,0.9,0.6,1.1c0.5,0.3,1,0.5,1.6,0.7c1.6,0.6,3.5,1.4,5,4.7c1.1,2.6,1,4.8,1,6.5
		c0,0.5-0.1,1.3,0,1.5c0.6,1.1,1.2,1.2,1.7,1.2c0.5,0,0.9-0.1,1-0.2c0.2-0.2,0.3-0.6,0.3-1.4c0-0.4,0-0.9-0.1-1.4
		c-0.1-2.8-0.3-6-2.4-9.3C52.9,68.6,47.4,65.8,45.8,66z M72.6,85.9c-1.8,0-3.4-0.6-4.4-1.6c-1.1-1.1-1.6-2.7-1.5-4.7
		c0-0.4,0-0.8,0.1-1.3c0.1-2.8,0.3-6.1,2.1-9.7l-23.6-9.8c-3.8-1.6-5.5-5.8-3.9-9.4c1.2-2.6,3.9-4.3,6.9-4.3c1,0,2,0.2,3,0.6
		l31.7,13.2c3.8,1.6,5.5,5.8,3.9,9.4l0,0c-1.1,2.4-3.5,4-6.2,4.3c-0.3,0.3-0.6,0.7-1,1.5c-0.7,1.7-0.7,3.1-0.6,4.5
		c0.1,1.2,0.1,2.5-0.5,3.7C76.9,85.3,74.4,85.9,72.6,85.9z M48.1,49.6c-1.1,0-2.1,0.6-2.6,1.6c-0.6,1.3,0,2.9,1.4,3.5l28.8,11.9
		l-1.9,2.3c-0.1,0.1-0.1,0.2-0.2,0.3c-2.1,3.2-2.3,6.4-2.4,9.3c0,0.5,0,0.9-0.1,1.3c0,0.8,0.1,1.3,0.3,1.4c0.2,0.2,0.5,0.2,1,0.2
		c0.5,0,1.1-0.1,1.7-1.3c0.1-0.2,0-0.9,0-1.4c-0.1-1.6-0.2-3.9,1-6.5c0.8-1.8,1.8-3,3.2-3.9l0.6-0.3l1,0c1,0,2-0.6,2.4-1.6
		c0.6-1.3,0-2.9-1.4-3.5L49.2,49.8C48.9,49.7,48.5,49.6,48.1,49.6z M79.9,55.3c-1,0-2-0.2-3-0.6L45.2,41.6c-3.8-1.6-5.5-5.8-3.9-9.4
		c1.6-3.6,6-5.3,9.8-3.7l31.7,13.2c3.8,1.6,5.5,5.8,3.9,9.4C85.5,53.7,82.7,55.3,79.9,55.3z M48.1,32.4c-0.3,0-0.7,0.1-1,0.2
		c-0.7,0.3-1.2,0.8-1.5,1.4c-0.6,1.3,0,2.9,1.4,3.5l31.7,13.2c1.4,0.6,3.1,0,3.7-1.4c0.6-1.3,0-2.9-1.4-3.5L49.2,32.6
		C48.9,32.5,48.5,32.4,48.1,32.4z M79.9,38.1c-1,0-2-0.2-3-0.6L45.2,24.3c-1.8-0.8-3.2-2.1-4-3.9c-0.7-1.8-0.7-3.7,0.1-5.4
		c1.6-3.6,6-5.3,9.8-3.7l31.7,13.2c3.8,1.6,5.5,5.8,3.9,9.4c-0.8,1.7-2.2,3.1-4.1,3.8C81.7,37.9,80.8,38.1,79.9,38.1z M48.1,15.2
		c-0.3,0-0.7,0.1-1,0.2c-0.7,0.3-1.2,0.8-1.5,1.4c-0.6,1.3,0,2.9,1.4,3.5l31.7,13.2c0.7,0.3,1.4,0.3,2.1,0c0.7-0.3,1.2-0.8,1.5-1.4
		c0.6-1.3,0-2.9-1.4-3.5L49.2,15.4C48.9,15.2,48.5,15.2,48.1,15.2z M79.6,20.9c-1,0-2-0.2-3-0.6l-16.1-6.7c-3.8-1.6-5.5-5.8-3.9-9.4
		c0.8-1.7,2.2-3.1,4.1-3.8c1.9-0.7,3.9-0.7,5.7,0.1l16.1,6.7c3.8,1.6,5.5,5.8,3.9,9.4l0,0c-0.8,1.7-2.2,3.1-4.1,3.8
		C81.5,20.8,80.6,20.9,79.6,20.9z M63.5,4.5c-0.3,0-0.7,0.1-1,0.2c-0.7,0.3-1.2,0.8-1.5,1.4c-0.6,1.3,0,2.9,1.4,3.5l16.1,6.7
		c0.7,0.3,1.4,0.3,2.1,0c0.7-0.3,1.2-0.8,1.5-1.4l0,0c0.6-1.3,0-2.9-1.4-3.5L64.6,4.7C64.3,4.5,63.9,4.5,63.5,4.5z M73.7,100.8H54.3
		c-6.1,0-11-4.7-11-10.5v-9.5h41.5v9.5C84.8,96,79.8,100.8,73.7,100.8z M75.4,121.7H53l6.1,6.3h10.2L75.4,121.7z M77.2,109v-3.6
		c0-0.9-0.7-1.7-1.7-1.7H52.8c-0.9,0-1.7,0.7-1.7,1.7v3.6c0,0.9,0.7,1.7,1.7,1.7h22.7C76.5,110.7,77.2,110,77.2,109z M77.2,118v-3.6
		c0-0.9-0.7-1.7-1.7-1.7H52.8c-0.9,0-1.7,0.7-1.7,1.7v3.6c0,0.9,0.7,1.7,1.7,1.7h22.7C76.5,119.6,77.2,118.9,77.2,118z"/>
	<path id="blub_5_" class="st0" d="M79.1,128H50.6v-7.7h28.5V128z M85.1,94.9H43.7v4.9h41.5V94.9z M85.1,103.8H43.7v4.9h41.5V103.8z
		 M85.1,112.7H43.7v4.9h41.5V112.7z M85.3,91.3H43.6V89c0-7.1-4.5-13.8-9.2-20.8C29,60,22.8,50.8,22.8,39.4C22.8,17.7,41.3,0,64,0
		s41.2,17.7,41.2,39.4c0,11.4-5.9,20.5-11.1,28.5c-4.6,7.1-8.9,13.7-8.9,21.2V91.3z M48.4,86.7h32.2c0.7-7.7,5-14.3,9.5-21.3
		c5.1-7.8,10.3-16,10.3-26C100.4,20.2,84,4.6,64,4.6S27.6,20.2,27.6,39.4c0,10.1,5.5,18.3,10.9,26.3C43.2,72.6,47.6,79.2,48.4,86.7z
		 M66.6,80.1h-4.8V56.4l-16-14.8l3.4-3.3l15,13.9l14.5-13.9l3.4,3.3L66.6,56.3V80.1z"/>
</g>
</svg>
