<svg xmlns="http://www.w3.org/2000/svg" id="smily" width="487" height="484">
  <defs>
    <style>
      .cls-2{fill:#fff}.cls-3{fill:#fcf0c0}
    </style>
  </defs>
  <circle id="face" cx="241" cy="243" r="234" style="fill:#ffe269"/>
  <path id="mouth" d="M100 292h281.79s-18 78-140.9 78S100 292 100 292Z" class="cls-2"/>
  <ellipse id="eye-l" cx="141.5" cy="154" class="cls-2" rx="37.5" ry="65"/>
  <ellipse id="eye-r" cx="342.5" cy="154" class="cls-2" rx="37.5" ry="65"/>
  <circle id="pupil-l" cx="137.5" cy="182.5" r="24.5"/>
  <circle id="pupil-r" cx="337.5" cy="182.5" r="24.5"/>
  <path id="eyelash-l" d="M179 154c-37 2-37 0-75 0 0-35.9 16.79-65 37.5-65s37.5 29.1 37.5 65Z" class="cls-3"/>
  <path id="eyelash-r" d="M380 154c-37 2-37 0-75 0 0-35.9 16.79-65 37.5-65s37.5 29.1 37.5 65Z" class="cls-3"/>
</svg>
